<svg xmlns="http://www.w3.org/2000/svg" x="0px" y="0px"
width="24" height="24"
viewBox="0 0 172 172"
style=" fill:#000000;"><g fill="none" fill-rule="nonzero" stroke="none" stroke-width="1" stroke-linecap="butt" stroke-linejoin="miter" stroke-miterlimit="10" stroke-dasharray="" stroke-dashoffset="0" font-family="none" font-weight="none" font-size="none" text-anchor="none" style="mix-blend-mode: normal"><path d="M0,172v-172h172v172z" fill="none"></path><g fill="#000000"><path d="M41.20833,21.5c-3.43151,-0.00284 -6.3836,2.42691 -7.04069,5.79492l-12.54167,64.5c-0.08594,0.45214 -0.12812,0.91151 -0.12598,1.37174v43c0,7.83362 6.49972,14.33333 14.33333,14.33333h100.33333c7.83362,0 14.33333,-6.49972 14.33333,-14.33333v-43c0.00215,-0.46023 -0.04004,-0.9196 -0.12598,-1.37174l-12.54167,-64.5c-0.65709,-3.36801 -3.60918,-5.79777 -7.04069,-5.79492zM47.11523,35.83333h77.76953l11.14193,57.33333h-21.36003c-3.08167,0 -5.8209,1.96792 -6.80274,4.89909l-4.2692,12.82161c-0.7525,2.25033 -2.86969,3.7793 -5.24902,3.7793h-24.6914c-2.37934,0 -4.49653,-1.5218 -5.24903,-3.7793l-4.2832,-12.82161c-0.97467,-2.924 -3.70707,-4.89909 -6.78874,-4.89909h-21.36003z"></path></g></g></svg>