<svg
    xmlns="http://www.w3.org/2000/svg"
    x="0px"
    y="0px"
    width="24"
    height="24"
    viewBox="0 0 172 172"
  >
    <g
      fill="none"
      fill-rule="nonzero"
      stroke="none"
      stroke-width="1"
      stroke-linecap="butt"
      stroke-linejoin="miter"
      stroke-miterlimit="10"
      stroke-dasharray=""
      stroke-dashoffset="0"
      font-family="none"
      font-weight="none"
      font-size="none"
      text-anchor="none"
    >
      <path d="M0,172v-172h172v172z" fill="none"></path>
      <g fill="#ffffff">
        <path d="M57.33333,35.83333c-11.87412,0 -21.5,9.62588 -21.5,21.5c0,11.87412 9.62588,21.5 21.5,21.5c11.87412,0 21.5,-9.62588 21.5,-21.5c0,-11.87412 -9.62588,-21.5 -21.5,-21.5zM114.66667,35.83333c-11.87412,0 -21.5,9.62588 -21.5,21.5c0,11.87412 9.62588,21.5 21.5,21.5c11.87412,0 21.5,-9.62588 21.5,-21.5c0,-11.87412 -9.62588,-21.5 -21.5,-21.5zM57.33333,93.16667c-21.5,0 -50.16667,10.492 -50.16667,25.08333v17.91667h100.33333v-17.91667c0,-14.59133 -28.66667,-25.08333 -50.16667,-25.08333zM114.66667,93.16667c-2.27183,0 -4.63336,0.14176 -7.0127,0.36393c8.471,6.19917 14.17936,14.39224 14.17936,24.7194v17.91667h43v-17.91667c0,-14.59133 -28.66667,-25.08333 -50.16667,-25.08333z"></path>
      </g>
    </g>
  </svg>
